<?xml version="1.0" encoding="utf-8"?>
<!-- Generator: Adobe Illustrator 28.0.0, SVG Export Plug-In . SVG Version: 6.00 Build 0)  -->
<svg version="1.1" id="Layer_1" xmlns="http://www.w3.org/2000/svg" xmlns:xlink="http://www.w3.org/1999/xlink" x="0px" y="0px"
	 viewBox="0 0 357 414" style="enable-background:new 0 0 357 414;" xml:space="preserve">
<style type="text/css">
	.st0{fill:#1A2E35;}
	.st1{opacity:0.8;fill:#1A2E35;enable-background:new    ;}
	.st2{opacity:0.2;enable-background:new    ;}
	.st3{opacity:0.1;enable-background:new    ;}
	.st4{fill:#FFFFFF;stroke:#1A2E35;stroke-linecap:round;stroke-linejoin:round;stroke-miterlimit:10;}
	.st5{fill:#DA975F;stroke:#1A2E35;stroke-linecap:round;stroke-linejoin:round;stroke-miterlimit:10;}
	.st6{fill:#737373;stroke:#1A2E35;stroke-linecap:round;stroke-linejoin:round;stroke-miterlimit:10;}
	.st7{fill:#1A2E35;stroke:#1A2E35;stroke-linecap:round;stroke-linejoin:round;stroke-miterlimit:10;}
	.st8{fill:none;stroke:#1A2E35;stroke-linecap:round;stroke-linejoin:round;stroke-miterlimit:10;}
	.st9{fill:none;stroke:#1A2E35;stroke-width:2;stroke-linecap:round;stroke-linejoin:round;stroke-miterlimit:10;}
	.st10{fill:#7D7D7D;stroke:#1A2E35;stroke-width:1;stroke-linecap:round;stroke-linejoin:round;stroke-miterlimit:9.9998;}
	.st11{fill:#1A2E35;stroke:#1A2E35;stroke-width:1;stroke-linecap:round;stroke-linejoin:round;stroke-miterlimit:9.9998;}
	.st12{fill:#7D7D7D;stroke:#1A2E35;stroke-linecap:round;stroke-linejoin:round;stroke-miterlimit:10;}
	.st13{fill:#636363;stroke:#1A2E35;stroke-width:1;stroke-linecap:round;stroke-linejoin:round;stroke-miterlimit:9.9998;}
</style>
<g>
	<path class="st0" d="M410.1,176.9c-10.7-48.4-47.7-86.6-98.2-99.3c-13.3-3.4-27.4-5.1-41.4-3.6c-57.4,5.9-125.9,44.5-161.4,52.6
		S31.9,102.3-15.3,152s-36.3,164.8,58.1,187.4c94.5,22.6,147-33,189-20.8c42,12.1,117.1,6.9,161.4-28.9
		C419.6,268.4,419.4,218.8,410.1,176.9z"/>
	<path class="st1" d="M410.1,176.9c-10.7-48.4-47.7-86.6-98.2-99.3c-13.3-3.4-27.4-5.1-41.4-3.6c-57.4,5.9-125.9,44.5-161.4,52.6
		S31.9,102.3-15.3,152s-36.3,164.8,58.1,187.4c94.5,22.6,147-33,189-20.8c42,12.1,117.1,6.9,161.4-28.9
		C419.6,268.4,419.4,218.8,410.1,176.9z"/>
</g>
<g>
	<rect x="188.6" y="188.1" class="st2" width="19.5" height="7.9"/>
	<rect x="181.2" y="160" class="st2" width="19.5" height="7.9"/>
	<rect x="110.7" y="187.8" class="st2" width="19.5" height="7.9"/>
	<rect x="139" y="133" class="st2" width="19.5" height="7.9"/>
	<rect x="160.3" y="133" class="st2" width="19.5" height="7.9"/>
	<rect x="77.4" y="246.1" class="st2" width="19.5" height="7.9"/>
	<rect x="67.2" y="255.8" class="st2" width="19.5" height="7.9"/>
	<rect x="170.5" y="170.9" class="st3" width="19.5" height="7.9"/>
	<rect x="199.7" y="215.2" class="st3" width="19.5" height="7.9"/>
	<rect x="85.7" y="227.2" class="st3" width="19.5" height="7.9"/>
	<rect x="108" y="227.2" class="st3" width="19.5" height="7.9"/>
	<rect x="109.8" y="216.1" class="st3" width="19.5" height="7.9"/>
	<rect x="192.7" y="170.9" class="st3" width="19.5" height="7.9"/>
	<rect x="183" y="108.2" class="st2" width="19.5" height="7.9"/>
	<rect x="175.5" y="80.2" class="st2" width="19.5" height="7.9"/>
	<rect x="164.9" y="91.1" class="st3" width="19.5" height="7.9"/>
	<rect x="187.1" y="91.1" class="st3" width="19.5" height="7.9"/>
	<rect x="134.8" y="255" class="st2" width="19.5" height="7.9"/>
	<rect x="124.2" y="265.9" class="st3" width="19.5" height="7.9"/>
	<rect x="146.4" y="265.9" class="st3" width="19.5" height="7.9"/>
	<rect x="40.5" y="157" class="st2" width="19.5" height="7.9"/>
	<rect x="29.9" y="167.9" class="st3" width="19.5" height="7.9"/>
	<rect x="52.1" y="167.9" class="st3" width="19.5" height="7.9"/>
	<rect x="32.9" y="215.6" class="st2" width="19.5" height="7.9"/>
	<rect x="119.1" y="178" class="st3" width="19.5" height="7.9"/>
	<rect x="89.9" y="255.3" class="st3" width="19.5" height="7.9"/>
	<rect x="150.1" y="123.3" class="st3" width="19.5" height="7.9"/>
	<rect x="21.8" y="189.6" class="st2" width="19.5" height="7.9"/>
	<rect x="32.9" y="179.8" class="st3" width="19.5" height="7.9"/>
	<rect x="82.5" y="132.5" class="st3" width="19.5" height="7.9"/>
	<rect x="150.1" y="188.1" class="st2" width="19.5" height="7.9"/>
	<rect x="254.9" y="188" class="st2" width="19.5" height="7.9"/>
	<rect x="262.3" y="160.1" class="st2" width="19.5" height="7.9"/>
	<rect x="332.7" y="187.8" class="st2" width="19.5" height="7.9"/>
	<rect x="304.5" y="133.1" class="st2" width="19.5" height="7.9"/>
	<rect x="283.2" y="133.1" class="st2" width="19.5" height="7.9"/>
	<rect x="273" y="170.9" class="st3" width="19.5" height="7.9"/>
	<rect x="243.8" y="215.1" class="st3" width="19.5" height="7.9"/>
	<rect x="357.8" y="227.2" class="st3" width="19.5" height="7.9"/>
	<rect x="335.5" y="227.2" class="st3" width="19.5" height="7.9"/>
	<rect x="333.7" y="216.1" class="st3" width="19.5" height="7.9"/>
	<rect x="250.8" y="170.9" class="st3" width="19.5" height="7.9"/>
	<rect x="99" y="286.3" class="st2" width="19.5" height="7.9"/>
	<rect x="109.7" y="297.2" class="st3" width="19.5" height="7.9"/>
	<rect x="87.5" y="297.2" class="st3" width="19.5" height="7.9"/>
	<rect x="4.9" y="286.3" class="st2" width="19.5" height="7.9"/>
	<rect x="15.5" y="297.2" class="st3" width="19.5" height="7.9"/>
	<rect x="-6.7" y="297.2" class="st3" width="19.5" height="7.9"/>
	<rect x="308.7" y="255" class="st2" width="19.5" height="7.9"/>
	<rect x="319.3" y="265.8" class="st3" width="19.5" height="7.9"/>
	<rect x="297.1" y="265.8" class="st3" width="19.5" height="7.9"/>
	<rect x="324.4" y="177.9" class="st3" width="19.5" height="7.9"/>
	<rect x="353.6" y="255.3" class="st3" width="19.5" height="7.9"/>
	<rect x="258.7" y="266.4" class="st3" width="19.5" height="7.9"/>
	<rect x="236.5" y="266.4" class="st3" width="19.5" height="7.9"/>
	<rect x="209.6" y="294.2" class="st2" width="19.5" height="7.9"/>
	<rect x="375.8" y="305" class="st3" width="19.5" height="7.9"/>
	<rect x="375.8" y="284.9" class="st3" width="19.5" height="7.9"/>
	<rect x="385.8" y="294.7" class="st3" width="19.5" height="7.9"/>
	<rect x="363.4" y="294.7" class="st3" width="19.5" height="7.9"/>
	<rect x="254.5" y="294.5" class="st3" width="19.5" height="7.9"/>
	<rect x="280.1" y="320.6" class="st2" width="19.5" height="7.9"/>
	<rect x="269.4" y="331.5" class="st3" width="19.5" height="7.9"/>
	<rect x="291.6" y="331.5" class="st3" width="19.5" height="7.9"/>
	<rect x="344.8" y="313.7" class="st2" width="19.5" height="7.9"/>
	<rect x="334.2" y="331.5" class="st3" width="19.5" height="7.9"/>
	<rect x="356.4" y="331.5" class="st3" width="19.5" height="7.9"/>
	<rect x="-3.9" y="339.4" class="st3" width="19.5" height="7.9"/>
	<rect x="59.9" y="329" class="st3" width="19.5" height="7.9"/>
	<rect x="24" y="319.2" class="st3" width="19.5" height="7.9"/>
	<rect x="14" y="329" class="st3" width="19.5" height="7.9"/>
	<rect x="36.3" y="329" class="st3" width="19.5" height="7.9"/>
	<rect x="293.4" y="123.3" class="st3" width="19.5" height="7.9"/>
	<rect x="283" y="90.1" class="st3" width="19.5" height="7.9"/>
	<rect x="361.1" y="132.4" class="st3" width="19.5" height="7.9"/>
	<rect x="293.4" y="188" class="st2" width="19.5" height="7.9"/>
	<rect x="76.1" y="79" class="st2" width="19.5" height="7.9"/>
	<rect x="-2.6" y="134.8" class="st3" width="19.5" height="7.9"/>
	<rect x="21.7" y="141.6" class="st3" width="19.5" height="7.9"/>
	<rect x="-25.8" y="149.4" class="st3" width="19.5" height="7.9"/>
	<rect x="9.3" y="149.7" class="st3" width="19.5" height="7.9"/>
	<rect x="64.1" y="90.1" class="st2" width="19.5" height="7.9"/>
	<rect x="272.6" y="79" class="st2" width="19.5" height="7.9"/>
	<rect x="260.7" y="90.1" class="st2" width="19.5" height="7.9"/>
</g>
<g class="st2">
	<g>
		<path d="M9.9,182.9h-50.2v-8.2H5.8V56.2H14v122.7C14,181.1,12.2,182.9,9.9,182.9z"/>
	</g>
	<g>
		<path d="M389.9,53.4v46.9H13.8v8.2h362.9v198h-96.8c-2.3,0-4.1,1.8-4.1,4.1v30.2h8.2v-26.1h92.7v27.7h8.2V108.5h9.1
			c2.3,0,4.1-1.8,4.1-4.1v-51H389.9z"/>
		<rect x="390" y="78.6" width="8" height="3.7"/>
		<rect x="309.2" y="306.6" width="3.7" height="8"/>
		<rect x="317.3" y="306.6" width="3.7" height="8"/>
	</g>
	<g>
		<g>
			<rect x="-28.7" y="321.4" width="132.1" height="8.2"/>
			<g>
				<g>
					<rect x="-28.7" y="310.1" width="132.1" height="8.2"/>
				</g>
				<rect x="27.7" y="310.2" width="5.6" height="8"/>
				<rect x="39.4" y="310.2" width="5.6" height="8"/>
			</g>
		</g>
		<rect x="27.7" y="321.5" width="5.6" height="8"/>
		<rect x="39.4" y="321.5" width="5.6" height="8"/>
	</g>
</g>
<path class="st4" d="M121.3,157.2v-10.8h-6.6c-0.3-1.8-0.8-3.6-1.4-5.3l5.7-3.3l-5.4-9.4l-5.7,3.3c-1.2-1.4-2.5-2.7-3.8-3.8l3.3-5.7
	l-9.4-5.4l-3.3,5.7c-1.7-0.6-3.4-1.1-5.3-1.4v-6.6H78.7v6.6c-1.8,0.3-3.6,0.8-5.3,1.4l-3.3-5.7l-9.4,5.4l3.3,5.7
	c-1.4,1.2-2.7,2.5-3.8,3.8l-5.7-3.3l-5.4,9.4l5.7,3.3c-0.6,1.7-1.1,3.4-1.4,5.3h-6.6v10.8h6.6c0.3,1.8,0.8,3.6,1.4,5.3l-5.7,3.3
	l5.4,9.4l5.7-3.3c1.2,1.4,2.5,2.7,3.8,3.8l-3.3,5.7l9.4,5.4l3.3-5.7c1.7,0.6,3.4,1.1,5.3,1.4v6.6h10.8v-6.6c1.8-0.3,3.6-0.8,5.3-1.4
	l3.3,5.7l9.4-5.4l-3.3-5.7c1.4-1.2,2.7-2.5,3.8-3.8l5.7,3.3l5.4-9.4l-5.7-3.3c0.6-1.7,1.1-3.4,1.4-5.3H121.3z M84.1,171.9
	c-11.1,0-20.1-9-20.1-20.1s9-20.1,20.1-20.1s20.1,9,20.1,20.1S95.2,171.9,84.1,171.9z"/>
<path class="st4" d="M72.2,256.4v-10.8h-6.6c-0.3-1.8-0.8-3.6-1.4-5.3l5.7-3.3l-5.4-9.4l-5.7,3.3c-1.2-1.4-2.5-2.7-3.8-3.8l3.3-5.7
	l-9.4-5.4l-3.3,5.7c-1.7-0.6-3.4-1.1-5.3-1.4v-6.6H29.6v6.6c-1.8,0.3-3.6,0.8-5.3,1.4L21,216l-9.4,5.4l3.3,5.7
	c-1.4,1.2-2.7,2.5-3.8,3.8l-5.7-3.3L0,237l5.7,3.3c-0.6,1.7-1.1,3.4-1.4,5.3h-6.6v10.8h6.6c0.3,1.8,0.8,3.6,1.4,5.3L0,265l5.4,9.4
	l5.7-3.3c1.2,1.4,2.5,2.7,3.8,3.8l-3.3,5.7L21,286l3.3-5.7c1.7,0.6,3.4,1.1,5.3,1.4v6.6h10.8v-6.6c1.8-0.3,3.6-0.8,5.3-1.4L49,286
	l9.4-5.4l-3.3-5.7c1.4-1.2,2.7-2.5,3.8-3.8l5.7,3.3L70,265l-5.7-3.3c0.6-1.7,1.1-3.4,1.4-5.3H72.2z M35,271.1
	c-11.1,0-20.1-9-20.1-20.1s9-20.1,20.1-20.1s20.1,9,20.1,20.1S46.1,271.1,35,271.1z"/>
<path class="st4" d="M346.4,254.8v-7.3H342c-0.2-1.2-0.5-2.4-0.9-3.5l3.8-2.2l-3.6-6.3l-3.8,2.2c-0.8-0.9-1.7-1.8-2.6-2.6l2.2-3.8
	l-6.3-3.6l-2.2,3.8c-1.1-0.4-2.3-0.7-3.5-0.9V226h-7.3v4.4c-1.2,0.2-2.4,0.5-3.5,0.9l-2.2-3.8l-6.3,3.6l2.2,3.8
	c-0.9,0.8-1.8,1.7-2.6,2.6l-3.8-2.2l-3.6,6.3l3.8,2.2c-0.4,1.1-0.7,2.3-0.9,3.5h-4.4v7.3h4.4c0.2,1.2,0.5,2.4,0.9,3.5l-3.8,2.2
	l3.6,6.3l3.8-2.2c0.8,0.9,1.7,1.8,2.6,2.6l-2.2,3.8l6.3,3.6l2.2-3.8c1.1,0.4,2.3,0.7,3.5,0.9v4.4h7.3v-4.4c1.2-0.2,2.4-0.5,3.5-0.9
	l2.2,3.8l6.3-3.6l-2.2-3.8c0.9-0.8,1.8-1.7,2.6-2.6l3.8,2.2l3.6-6.3l-3.8-2.2c0.4-1.1,0.7-2.3,0.9-3.5h4.4V254.8z M321.3,264.8
	c-7.5,0-13.6-6.1-13.6-13.6s6.1-13.6,13.6-13.6s13.6,6.1,13.6,13.6C334.9,258.7,328.8,264.8,321.3,264.8z"/>
<path class="st4" d="M310.8,151.5v-7.3h-4.4c-0.2-1.2-0.5-2.4-0.9-3.5l3.8-2.2l-3.6-6.3l-3.8,2.2c-0.8-0.9-1.7-1.8-2.6-2.6l2.2-3.8
	l-6.3-3.6l-2.2,3.8c-1.1-0.4-2.3-0.7-3.5-0.9v-4.4H282v4.4c-1.2,0.2-2.4,0.5-3.5,0.9l-2.2-3.8L270,128l2.2,3.8
	c-0.9,0.8-1.8,1.7-2.6,2.6l-3.8-2.2l-3.6,6.3l3.8,2.2c-0.4,1.1-0.7,2.3-0.9,3.5h-4.4v7.3h4.4c0.2,1.2,0.5,2.4,0.9,3.5l-3.8,2.2
	l3.6,6.3l3.8-2.2c0.8,0.9,1.7,1.8,2.6,2.6l-2.2,3.8l6.3,3.6l2.2-3.8c1.1,0.4,2.3,0.7,3.5,0.9v4.4h7.3v-4.4c1.2-0.2,2.4-0.5,3.5-0.9
	l2.2,3.8l6.3-3.6l-2.2-3.8c0.9-0.8,1.8-1.7,2.6-2.6l3.8,2.2l3.6-6.3l-3.8-2.2c0.4-1.1,0.7-2.3,0.9-3.5L310.8,151.5L310.8,151.5z
	 M285.6,161.5c-7.5,0-13.6-6.1-13.6-13.6s6.1-13.6,13.6-13.6s13.6,6.1,13.6,13.6S293.1,161.5,285.6,161.5z"/>
<g>
	<g>
		<path class="st4" d="M46.7,294.5V244h-65.8v-32.3L37.3,78h48.1v134.5h20.9V244H85.4v50.5H46.7z M13.5,212.4h33.1v-92L13.5,212.4z"
			/>
		<path class="st4" d="M85.4,294.8H46.7c-0.2,0-0.3-0.1-0.3-0.3v-50.2H-19c-0.2,0-0.3-0.1-0.3-0.3v-32.3v-0.1L37,77.8
			c0-0.1,0.2-0.2,0.3-0.2h48.1c0.2,0,0.3,0.1,0.3,0.3V212h20.5c0.2,0,0.3,0.1,0.3,0.3V244c0,0.2-0.1,0.3-0.3,0.3H85.7v50.2
			C85.7,294.7,85.6,294.8,85.4,294.8z M47,294.2h38.1V244c0-0.2,0.1-0.3,0.3-0.3H106v-30.9H85.4c-0.2,0-0.3-0.1-0.3-0.3V78.3H37.5
			l-56.3,133.4v32h65.4c0.2,0,0.3,0.1,0.3,0.3L47,294.2L47,294.2z M46.7,212.7H13.5c-0.1,0-0.2,0-0.3-0.1s-0.1-0.2,0-0.3l33.1-92
			c0.1-0.1,0.2-0.2,0.4-0.2s0.3,0.2,0.3,0.3v92C47,212.6,46.8,212.7,46.7,212.7z M14,212.1h32.4v-89.8L14,212.1z"/>
	</g>
	<g>
		<path class="st4" d="M183.8,298.2c-13,0-23.8-2.7-32.3-8c-8.6-5.3-15-12.7-19.2-22.1c-4.3-9.4-6.4-20.2-6.4-32.5v-97
			c0-12.7,2-23.7,6.1-33.3c4.1-9.5,10.4-17,19-22.3s19.5-8,32.9-8c13.2,0,24,2.7,32.5,8s14.7,12.8,18.8,22.3s6.1,20.6,6.1,33.3v97
			c0,12.3-2.1,23.1-6.4,32.5c-4.3,9.4-10.7,16.7-19.2,22.1C207,295.6,196.4,298.2,183.8,298.2z M183.8,261.9c4.8,0,8.3-1.5,10.4-4.5
			c2.1-3,3.6-6.6,4.3-10.8s1.1-8.1,1.1-11.6v-95.4c0-3.9-0.3-8-0.9-12.3c-0.6-4.3-2-8-4.1-11.1s-5.7-4.7-10.7-4.7s-8.6,1.6-10.8,4.7
			s-3.7,6.8-4.3,11.1c-0.6,4.3-0.9,8.4-0.9,12.3V235c0,3.6,0.4,7.4,1.1,11.6c0.7,4.2,2.2,7.8,4.5,10.8
			C175.7,260.4,179.2,261.9,183.8,261.9z"/>
		<path class="st4" d="M183.8,298.5c-13,0-23.9-2.7-32.5-8.1s-15.1-12.8-19.4-22.2c-4.3-9.4-6.4-20.3-6.4-32.6v-97
			c0-12.6,2.1-23.9,6.2-33.4s10.5-17.1,19.1-22.5s19.7-8.1,33-8.1c13.2,0,24.2,2.7,32.6,8.1c8.5,5.4,14.9,12.9,19,22.5
			c4.1,9.5,6.2,20.8,6.2,33.4v97c0,12.3-2.2,23.3-6.4,32.6c-4.3,9.4-10.8,16.8-19.4,22.2C207.2,295.8,196.4,298.5,183.8,298.5z
			 M183.8,75.3c-13.2,0-24.2,2.7-32.7,8s-14.8,12.7-18.9,22.2c-4.1,9.4-6.1,20.6-6.1,33.2v97c0,12.2,2.1,23.1,6.4,32.3
			c4.2,9.3,10.7,16.6,19.1,21.9c8.5,5.3,19.3,8,32.2,8c12.5,0,23.2-2.7,31.6-8c8.5-5.3,14.9-12.7,19.1-21.9
			c4.2-9.3,6.4-20.2,6.4-32.3v-97c0-12.5-2.1-23.7-6.1-33.2c-4.1-9.4-10.4-16.9-18.7-22.2C207.7,78,196.9,75.3,183.8,75.3z
			 M183.8,262.2c-4.7,0-8.3-1.6-10.7-4.7c-2.3-3.1-3.9-6.7-4.6-11c-0.7-4.2-1.1-8.1-1.1-11.7v-95.4c0-3.9,0.3-8.1,0.9-12.3
			c0.6-4.3,2.1-8.1,4.3-11.2c2.3-3.2,6-4.8,11.1-4.8s8.8,1.6,11,4.8c2.2,3.1,3.6,6.9,4.2,11.2c0.6,4.3,0.9,8.4,0.9,12.3v95.4
			c0,3.6-0.4,7.5-1.1,11.7c-0.7,4.2-2.2,7.9-4.3,11C192.3,260.6,188.7,262.2,183.8,262.2z M183.8,111.7c-4.9,0-8.4,1.5-10.6,4.5
			c-2.2,3.1-3.6,6.7-4.2,11c-0.6,4.2-0.9,8.3-0.9,12.3v95.4c0,3.5,0.4,7.4,1.1,11.6c0.7,4.1,2.2,7.7,4.5,10.7
			c2.2,2.9,5.7,4.4,10.2,4.4c4.7,0,8.1-1.5,10.2-4.4c2.1-3,3.5-6.6,4.2-10.7c0.7-4.2,1.1-8.1,1.1-11.6v-95.4c0-3.9-0.3-8-0.9-12.3
			c-0.6-4.2-2-7.9-4.1-11C192.2,113.2,188.6,111.7,183.8,111.7z"/>
	</g>
	<g>
		<path class="st4" d="M329.5,294.5V244h-65.8v-32.3L320.1,78h48.1v134.5h20.9V244h-20.9v50.5H329.5z M296.3,212.4h33.1v-92
			L296.3,212.4z"/>
		<path class="st4" d="M368.2,294.8h-38.8c-0.2,0-0.3-0.1-0.3-0.3v-50.2h-65.4c-0.2,0-0.3-0.1-0.3-0.3v-32.3v-0.1l56.4-133.7
			c0-0.1,0.2-0.2,0.3-0.2h48.1c0.2,0,0.3,0.1,0.3,0.3v134.1H389c0.2,0,0.3,0.1,0.3,0.3V244c0,0.2-0.1,0.3-0.3,0.3h-20.5v50.2
			C368.5,294.7,368.4,294.8,368.2,294.8z M329.8,294.2h38.1V244c0-0.2,0.1-0.3,0.3-0.3h20.5v-30.9h-20.5c-0.2,0-0.3-0.1-0.3-0.3
			V78.3h-47.6L264,211.7v32h65.4c0.2,0,0.3,0.1,0.3,0.3v50.2H329.8z M329.5,212.7h-33.1c-0.1,0-0.2,0-0.3-0.1
			c-0.1-0.1-0.1-0.2,0-0.3l33.1-92c0.1-0.1,0.2-0.2,0.4-0.2c0.2,0,0.3,0.2,0.3,0.3v92C329.8,212.6,329.6,212.7,329.5,212.7z
			 M296.8,212.1h32.4v-89.8L296.8,212.1z"/>
	</g>
</g>
<g>
	<path class="st4" d="M136.3,342.9v-32.6h11.8v2.4h-8.7V325h7.1v2.3h-7.1v13.5h8.8v2.3h-11.9V342.9z"/>
	<path class="st4" d="M152.3,342.9v-32.6h7.4c2,0,3.6,0.3,4.8,1s2,1.6,2.5,2.9c0.5,1.2,0.8,2.7,0.8,4.5c0,1.2-0.1,2.4-0.4,3.4
		c-0.3,1.1-0.7,2-1.4,2.7c-0.6,0.8-1.6,1.2-2.7,1.5l5,16.7h-3l-4.8-16h-5.1v16h-3.1V342.9z M155.4,324.6h4.2c1.4,0,2.4-0.2,3.2-0.7
		s1.3-1.1,1.6-2s0.5-2,0.5-3.3c0-2-0.3-3.5-1-4.5s-2.1-1.5-4.2-1.5h-4.2v12H155.4z"/>
	<path class="st4" d="M173,342.9v-32.6h7.4c2,0,3.6,0.3,4.8,1s2,1.6,2.5,2.9c0.5,1.2,0.8,2.7,0.8,4.5c0,1.2-0.1,2.4-0.4,3.4
		c-0.3,1.1-0.7,2-1.4,2.7c-0.6,0.8-1.6,1.2-2.7,1.5l5,16.7h-3l-4.8-16H176v16h-3V342.9z M176,324.6h4.2c1.4,0,2.4-0.2,3.2-0.7
		s1.3-1.1,1.6-2s0.5-2,0.5-3.3c0-2-0.3-3.5-1-4.5s-2.1-1.5-4.2-1.5H176V324.6z"/>
	<path class="st4" d="M201.3,343.3c-2.1,0-3.8-0.4-5.1-1.3c-1.2-0.8-2.1-2-2.6-3.5s-0.7-3.3-0.7-5.2v-13.5c0-2,0.3-3.7,0.8-5.2
		s1.4-2.6,2.6-3.4c1.2-0.8,2.9-1.2,5-1.2s3.8,0.4,5,1.2c1.2,0.8,2.1,1.9,2.6,3.4s0.8,3.2,0.8,5.2v13.6c0,2-0.2,3.7-0.7,5.2
		s-1.4,2.7-2.6,3.5S203.5,343.3,201.3,343.3z M201.3,340.9c1.5,0,2.6-0.3,3.3-0.9c0.8-0.6,1.3-1.4,1.6-2.4s0.4-2.2,0.4-3.6v-14.8
		c0-1.4-0.1-2.6-0.4-3.6c-0.3-1-0.8-1.8-1.6-2.4s-1.9-0.8-3.3-0.8c-1.4,0-2.5,0.3-3.3,0.8c-0.8,0.6-1.3,1.3-1.6,2.4
		c-0.3,1-0.4,2.2-0.4,3.6V334c0,1.4,0.1,2.6,0.4,3.6c0.3,1,0.8,1.8,1.6,2.4S199.9,340.9,201.3,340.9z"/>
	<path class="st4" d="M214.8,342.9v-32.6h7.4c2,0,3.6,0.3,4.8,1s2,1.6,2.5,2.9c0.5,1.2,0.8,2.7,0.8,4.5c0,1.2-0.1,2.4-0.4,3.4
		c-0.3,1.1-0.7,2-1.4,2.7c-0.6,0.8-1.6,1.2-2.7,1.5l5,16.7h-3l-4.8-16h-5.1v16h-3.1V342.9z M217.8,324.6h4.2c1.4,0,2.4-0.2,3.2-0.7
		s1.3-1.1,1.6-2s0.5-2,0.5-3.3c0-2-0.3-3.5-1-4.5s-2.1-1.5-4.2-1.5h-4.2v12H217.8z"/>
</g>
<g>
	<path class="st5" d="M125.8,186.3l2.3,33.7l-14.6-6.8l-3.7,14.8c0,0,31.4,17.5,34.5,17c3.1-0.6-4.7-68.8-4.7-68.8L125.8,186.3z"/>
	<path class="st5" d="M146.9,267.7c0,0,16.8-5.8,23.4-11.3c6.6-5.5-27.9-72.3-27.9-72.3S142.9,245.3,146.9,267.7z"/>
	<path class="st6" d="M217.3,246.1l-1.9,0.3c0,0.1,0,0.2,0,0.3c-0.1,2.5-13.7,9.2-23.2,12.8c-2.1,1.6-4.9,2.4-8.4,2.4h-0.1
		c-7.4,0.7-21.5-2.5-24.7-4.7l-3.5,35.3l0,0c0.6,0.3,1.1,0.5,1.7,0.8c7.5,3.3,16.3,5,26.6,5c11.8,0,21.8-2.3,30.1-7
		c0.1,0,0.1-0.1,0.2-0.1c0.5-0.3,1-0.6,1.5-0.9c0.6-0.4,1.2-0.8,1.8-1.2c0.2-0.1,0.4-0.2,0.5-0.4c0.4-0.3,0.8-0.6,1.2-0.9
		c0.2-0.1,0.4-0.3,0.6-0.4c0.4-0.3,0.8-0.6,1.2-0.9c0.2-0.1,0.3-0.3,0.5-0.4c0.5-0.4,1.1-0.9,1.6-1.4l0,0
		C220.8,269,217.3,246.1,217.3,246.1z"/>
	<path class="st4" d="M141.9,205.1c0,0,15.6,38.1,15.8,39.5c0.2,1.3-1.5,10,1,12.3s19.3,6.2,26.4,4.8c7.1-1.3,30.2-11.7,30.4-15
		s-22.9-67.2-25.8-74.9c-2.9-7.7-14.6-10.4-22.5-9.6c-7.9,0.8-27,5.8-30.4,10.6C133.2,177.6,141.9,205.1,141.9,205.1z"/>
	<g>
		<path class="st4" d="M143.2,169.7c0,0-1.9,17.5-0.8,21.2c1.2,3.7,6.4,13.7,6.4,13.7s8.8-11,10.5-12.2s17.7,9,17.7,9s0.6-11-1.7-20
			s-6.4-18.9-7.7-20.6c-1.3-1.7-1.3,4.6-6.4,8.9C156.3,173.9,143.2,169.7,143.2,169.7z"/>
		<g>
			<path class="st4" d="M141.8,172.7c0,0,2.3,5.8,7.3,12.9c5,7.1,11.8,12.3,11.8,12.3s5.4-13.9,6.9-22.2s-1-16.6-1-16.6
				s-1,12.5-5.4,15C157,176.5,141.8,172.7,141.8,172.7z"/>
			<path class="st7" d="M153.2,174.7c-5.5-0.5-11.4-1.9-11.4-1.9s2.3,5.8,7.3,12.9c0.5,0.7,1,1.3,1.5,2l8.6-9.9L153.2,174.7z"/>
		</g>
	</g>
	<g>
		<path class="st5" d="M166.7,159c0,0,6.3,25.3,8.6,44.4s7.9,75.5,7.9,75.5s17.3-5,26.4-11.6c9-6.5,11.9-11,11.9-11
			s-14.8-64.9-14.8-65.8c0-1,1.5-10.6,1.5-10.6s26.2-12.3,36.2-19.8s7.5-11.6,2.7-13.5s-19.8,0.2-28.1,2.5s-12.5,3.9-12.5,3.9
			s-9.2-0.8-17.7,1.2S166.7,159,166.7,159z"/>
		<path class="st4" d="M180,223.7c-0.3,1-0.6,2-1,3.1"/>
		<path class="st8" d="M183,180.9l3,1.9c0,0-1,15.3-2.3,25c-0.8,5.8-1.5,9-2.8,13.4"/>
		<path class="st8" d="M177.8,162.6c1.9,3.6,4.7,8.8,4.7,9.6c0,1.2-2.9,6.5-2.9,6.5l1.8,1.1"/>
		<path class="st4" d="M175.9,159.3c0,0,0.3,0.5,0.8,1.4"/>
		<path class="st8" d="M211.4,244.1c-2.1,1.5-5.4,3.4-9.8,5.1c-9,3.5-10.6,4-10.6,4l1.3,4.6c0,0,15.8-2.9,23.1-11.2"/>
		<path class="st4" d="M214.6,241.5c0,0-0.4,0.4-1.3,1.2"/>
		<polyline class="st8" points="211.7,169.7 208.3,179.9 216.4,167.7 		"/>
		<line class="st8" x1="213.3" y1="165.1" x2="212.5" y2="167.4"/>
	</g>
	<g>
		<path class="st5" d="M143.2,169.7c0,0,1.9,35,4,52.2c2.1,17.1,5.6,59.5,5.6,59.5s-6.7-0.6-11.2-6c-4.4-5.4-6.5-9.4-6.5-9.4
			s0-36.6,0-38.1s-3.1-19.1-6-27.7c-2.9-8.7-7.1-18.7-4.6-22.9s10.4-10.6,13.3-11.4C140.7,165.1,143,165.8,143.2,169.7z"/>
		<path class="st5" d="M142.1,213.7c1.1,3.4,2.1,6.4,3,8.4"/>
		<path class="st5" d="M135.6,176.3c-0.3,2.5-0.5,4.4-0.2,4.7c0.8,0.8,3.9,3.5,3.9,3.5s-3.9,4.8-3.3,7.3c0.4,1.6,2.9,11.2,5.5,19.5"
			/>
		<path class="st5" d="M137.6,163.5c0,0-1,5.5-1.7,10.4"/>
		<line class="st8" x1="139.9" y1="252.5" x2="136.5" y2="250.9"/>
		<polyline class="st5" points="136.5,245.7 145.9,249.6 145.9,255.3 141.6,253.3 		"/>
	</g>
	<g>
		<path class="st4" d="M128.8,146.5l3.3,8.1c0,0-4.3-4.4-5.3-0.5s2,8.6,3.9,8.6c2,0,4.3,0.2,4.3,0.2s6.9,12.2,11.2,14.5
			s10,4.3,13.7,2.3c3.6-2,5.6-7.4,6.7-11.5c1.2-4.1,0.3-16.5,0.3-16.5l-5.9-24.4c0,0,4.1-1.5,4.1-4.3s-9.5-3.6-9.5-3.6
			s3.8-4.4-1-5.1s-20.2,8.6-20.7,8.9s2.6-5.8-1.3-3.6c-3.9,2.1-8.6,12.7-8.1,15.1C125,137.1,128.8,146.5,128.8,146.5z"/>
		<path class="st6" d="M155.7,119.4c0,0,3.8-4.4-1-5.1s-20.2,8.6-20.7,8.9s2.6-5.8-1.3-3.6c-3.9,2.1-8.6,12.7-8.1,15.1
			c0.5,2.5,4.3,11.8,4.3,11.8l3.3,8.1c0,0,3.8,3.5,2.5,0.8s-3.9-8.6-3.3-9.4c0.7-0.8,3.9-2.1,4.1-3.9c0.2-1.8-3.1-7.1-2.1-8.4
			c1-1.3,15,1.2,17.4-0.3c2.5-1.5-0.7-5.1-0.7-5.1l11-1c0,0,4.1-1.5,4.1-4.3C165.2,120.2,155.7,119.4,155.7,119.4z"/>
		<path class="st4" d="M157.8,160c0,0-1.5,2.8-3.8,3"/>
		<path class="st0" d="M147.6,152.4c0.5,1,0.3,2.1-0.4,2.4c-0.7,0.3-1.6-0.2-2.1-1.2s-0.3-2.1,0.4-2.4
			C146.2,150.9,147.1,151.4,147.6,152.4z"/>
		<path class="st0" d="M160.7,149.8c0.2,1.1-0.3,2-1.1,2.2c-0.8,0.1-1.5-0.7-1.7-1.7c-0.2-1.1,0.3-2,1.1-2.2
			C159.8,148,160.5,148.8,160.7,149.8z"/>
		<path class="st4" d="M154,169.2c0,0,2.8,0,4.8-1.5"/>
		<path class="st9" d="M139.4,150.3c0,0,2.3-3.3,8.6-1.3"/>
		<path class="st9" d="M156,147.2c0,0,1.2-3.8,5.6-4.1"/>
		<path class="st4" d="M165.2,143.9c0,0,1.2-2.6,2.5-1s1.8,4.9,1,7.1c-0.8,2.1-1.3,3.9-1.3,3.9l-0.3-2.3L165.2,143.9z"/>
	</g>
	<g>
		<path class="st4" d="M195.5,131c0,0-18.1-3.3-19.2-3.3s-14.6,2.5-16.6,3.3s-16.9,5.1-16.6,6.1c0.3,1,2.1,1.3,2.1,1.3
			s0.3,1.5,5.6,2.1c5.3,0.7,17.6-1,17.8,0.2s-0.8,2.1-0.8,2.1l1.5,2.6c0,0,5.4-0.8,7.2-2.1s6.9-5.4,6.9-5.4l11,0.8L195.5,131z"/>
		<path class="st4" d="M155.3,133.3c0,0-7.4,3.1-8.6,3.8c-1.2,0.7,2.1,2,4.1,1.6c2-0.3,9.5-3.3,10.7-3.6s6.4,1,10.2,1.5
			s6.4-0.7,7.1-1"/>
	</g>
	<path class="st5" d="M240.1,157.4c0,0-5.8,1.5-12.7,0s-25.2-10.6-25.2-10.6l-12.5-3.7l2.9-14.6c0,0,31.6,3.9,40.4,7.1
		c8.9,3.3,21.8,10.8,21.4,13.5c-0.4,2.7-7.5,8.5-7.5,8.5"/>
	<path class="st8" d="M131.6,220.3c0,0,11.6,13.3,21.4,8.8c9.8-4.5,14.6-33.1,14.6-33.1"/>
	<path class="st8" d="M116.4,210.2c0,0,9.2,11.5,21.4,10.4s16.3-15.2,16.2-22.2"/>
	<g>
		<g>
			
				<rect x="107.2" y="209.4" transform="matrix(0.3185 -0.9479 0.9479 0.3185 -120.8806 254.7764)" class="st10" width="19.1" height="4.1"/>
			
				<rect x="118.6" y="198.5" transform="matrix(0.3185 -0.9479 0.9479 0.3185 -109.4315 251.1573)" class="st11" width="2.8" height="6.3"/>
		</g>
		<g>
			
				<rect x="115.7" y="212.3" transform="matrix(0.3185 -0.9479 0.9479 0.3185 -117.8294 264.7928)" class="st10" width="19.1" height="4.1"/>
			
				<rect x="127.1" y="201.5" transform="matrix(0.3185 -0.9479 0.9479 0.3185 -106.3465 261.2847)" class="st11" width="2.8" height="6.3"/>
		</g>
		
			<rect x="112.9" y="208.4" transform="matrix(0.3185 -0.9479 0.9479 0.3185 -121.8839 260.4582)" class="st11" width="14.6" height="13.2"/>
		<g>
			<polygon class="st12" points="112.7,229.1 101,225.2 107.2,215 113.9,217.2 			"/>
			
				<rect x="98.2" y="227.2" transform="matrix(0.3185 -0.9479 0.9479 0.3185 -149.8121 258.318)" class="st13" width="13.1" height="12.3"/>
			
				<rect x="106" y="204.7" transform="matrix(0.3185 -0.9479 0.9479 0.3185 -122.3864 249.8661)" class="st13" width="13.1" height="10.6"/>
		</g>
		<g>
			<polygon class="st12" points="129.8,234.9 118.1,230.9 124.3,220.7 131,223 			"/>
			
				<rect x="115.2" y="233" transform="matrix(0.3185 -0.9479 0.9479 0.3185 -143.7086 278.3518)" class="st13" width="13.1" height="12.3"/>
			
				<rect x="123.1" y="210.5" transform="matrix(0.3185 -0.9479 0.9479 0.3185 -116.1388 269.9752)" class="st13" width="13.1" height="10.6"/>
		</g>
	</g>
	<g>
		<path class="st4" d="M105.7,201.3c0,0-1.4,2.2-1,2.9c0.4,0.6,4.3,2.8,4.9,3s2.1-0.6,2-1.7c-0.1-1-3.1-3.3-4.1-3.8
			C106.6,201.1,106.1,201,105.7,201.3z"/>
		<path class="st4" d="M103.5,205.7c0,0-0.7,2.5-0.1,3s5,1.4,5.5,1.4c0.6,0,1.8-1.2,1.4-2.2s-3.9-2.2-5-2.5
			C104.3,205.3,103.8,205.3,103.5,205.7z"/>
		<path class="st4" d="M102.3,210.1c0,0-0.7,2.5-0.1,3s5,1.4,5.5,1.4c0.6,0,1.8-1.2,1.4-2.2s-3.9-2.2-5-2.5
			C103.1,209.7,102.6,209.7,102.3,210.1z"/>
		<path class="st4" d="M102.9,214.4c0,0-0.7,2.5-0.1,3s5,1.4,5.5,1.4c0.6,0,1.8-1.2,1.4-2.2s-3.9-2.2-5-2.5
			C103.6,213.9,103.2,214,102.9,214.4z"/>
	</g>
</g>
</svg>
