<?xml version="1.0" encoding="utf-8"?>
<!-- Generator: Adobe Illustrator 28.0.0, SVG Export Plug-In . SVG Version: 6.00 Build 0)  -->
<svg version="1.1" id="Layer_1" xmlns="http://www.w3.org/2000/svg" xmlns:xlink="http://www.w3.org/1999/xlink" x="0px" y="0px"
	 viewBox="0 0 357 414" style="enable-background:new 0 0 357 414;" xml:space="preserve">
<style type="text/css">
	.st0{fill:#5AE4A7;}
	.st1{opacity:0.8;fill:#FFFFFF;}
	.st2{opacity:0.2;}
	.st3{opacity:0.1;}
	.st4{fill:#FFFFFF;stroke:#1A2E35;stroke-linecap:round;stroke-linejoin:round;stroke-miterlimit:10;}
	.st5{fill:#1A2E35;}
	.st6{fill:#DA975F;stroke:#1A2E35;stroke-linecap:round;stroke-linejoin:round;stroke-miterlimit:10;}
	.st7{fill:#737373;stroke:#1A2E35;stroke-linecap:round;stroke-linejoin:round;stroke-miterlimit:10;}
	.st8{fill:#1A2E35;stroke:#1A2E35;stroke-linecap:round;stroke-linejoin:round;stroke-miterlimit:10;}
	.st9{fill:none;stroke:#1A2E35;stroke-linecap:round;stroke-linejoin:round;stroke-miterlimit:10;}
	.st10{fill:none;stroke:#1A2E35;stroke-width:2;stroke-linecap:round;stroke-linejoin:round;stroke-miterlimit:10;}
	.st11{fill:#7D7D7D;stroke:#1A2E35;stroke-linecap:round;stroke-linejoin:round;stroke-miterlimit:10;}
	.st12{fill:#636363;stroke:#1A2E35;stroke-linecap:round;stroke-linejoin:round;stroke-miterlimit:10;}
</style>
<g>
	<path class="st0" d="M410.7,165c-10.7-48.4-47.7-86.6-98.2-99.3c-13.3-3.4-27.4-5.1-41.4-3.6c-57.4,5.9-125.9,44.5-161.4,52.6
		c-35.5,8.1-77.2-24.3-124.4,25.4C-62,189.8-51.1,304.9,43.4,327.5c94.5,22.6,147-33,189-20.8c42,12.1,117.1,6.9,161.4-28.9
		C420.1,256.5,419.9,206.9,410.7,165z"/>
	<path class="st1" d="M410.7,165c-10.7-48.4-47.7-86.6-98.2-99.3c-13.3-3.4-27.4-5.1-41.4-3.6c-57.4,5.9-125.9,44.5-161.4,52.6
		c-35.5,8.1-77.2-24.3-124.4,25.4C-62,189.8-51.1,304.9,43.4,327.5c94.5,22.6,147-33,189-20.8c42,12.1,117.1,6.9,161.4-28.9
		C420.1,256.5,419.9,206.9,410.7,165z"/>
</g>
<g>
	<rect x="189.1" y="176.2" class="st2" width="19.5" height="7.9"/>
	<rect x="181.7" y="148.1" class="st2" width="19.5" height="7.9"/>
	<rect x="111.3" y="175.9" class="st2" width="19.5" height="7.9"/>
	<rect x="139.6" y="121.1" class="st2" width="19.5" height="7.9"/>
	<rect x="160.9" y="121.1" class="st2" width="19.5" height="7.9"/>
	<rect x="77.9" y="234.2" class="st2" width="19.5" height="7.9"/>
	<rect x="67.8" y="243.9" class="st2" width="19.5" height="7.9"/>
	<rect x="171.1" y="159" class="st3" width="19.5" height="7.9"/>
	<rect x="200.2" y="203.3" class="st3" width="19.5" height="7.9"/>
	<rect x="86.3" y="215.3" class="st3" width="19.5" height="7.9"/>
	<rect x="108.5" y="215.3" class="st3" width="19.5" height="7.9"/>
	<rect x="110.4" y="204.2" class="st3" width="19.5" height="7.9"/>
	<rect x="193.3" y="159" class="st3" width="19.5" height="7.9"/>
	<rect x="183.5" y="96.3" class="st2" width="19.5" height="7.9"/>
	<rect x="176.1" y="68.3" class="st2" width="19.5" height="7.9"/>
	<rect x="165.4" y="79.2" class="st3" width="19.5" height="7.9"/>
	<rect x="187.7" y="79.2" class="st3" width="19.5" height="7.9"/>
	<rect x="135.4" y="243.1" class="st2" width="19.5" height="7.9"/>
	<rect x="124.7" y="254" class="st3" width="19.5" height="7.9"/>
	<rect x="147" y="254" class="st3" width="19.5" height="7.9"/>
	<rect x="41.1" y="145.1" class="st2" width="19.5" height="7.9"/>
	<rect x="30.4" y="156" class="st3" width="19.5" height="7.9"/>
	<rect x="52.7" y="156" class="st3" width="19.5" height="7.9"/>
	<rect x="33.5" y="203.7" class="st2" width="19.5" height="7.9"/>
	<rect x="119.6" y="166.1" class="st3" width="19.5" height="7.9"/>
	<rect x="90.5" y="243.4" class="st3" width="19.5" height="7.9"/>
	<rect x="150.7" y="111.4" class="st3" width="19.5" height="7.9"/>
	<rect x="22.4" y="177.6" class="st2" width="19.5" height="7.9"/>
	<rect x="33.5" y="167.9" class="st3" width="19.5" height="7.9"/>
	<rect x="83" y="120.6" class="st3" width="19.5" height="7.9"/>
	<rect x="150.7" y="176.2" class="st2" width="19.5" height="7.9"/>
	
		<rect x="255.5" y="176.2" transform="matrix(-1 -1.224647e-16 1.224647e-16 -1 530.5018 360.1959)" class="st2" width="19.5" height="7.9"/>
	
		<rect x="262.9" y="148.1" transform="matrix(-1 -1.224647e-16 1.224647e-16 -1 545.3245 304.1477)" class="st2" width="19.5" height="7.9"/>
	
		<rect x="333.3" y="175.9" transform="matrix(-1 -1.224647e-16 1.224647e-16 -1 686.1399 359.7326)" class="st2" width="19.5" height="7.9"/>
	
		<rect x="305.1" y="121.1" transform="matrix(-1 -1.224647e-16 1.224647e-16 -1 629.6284 250.1473)" class="st2" width="19.5" height="7.9"/>
	
		<rect x="283.8" y="121.1" transform="matrix(-1 -1.224647e-16 1.224647e-16 -1 587.0132 250.1473)" class="st2" width="19.5" height="7.9"/>
	
		<rect x="273.6" y="159" transform="matrix(-1 -1.224647e-16 1.224647e-16 -1 566.6321 325.9185)" class="st3" width="19.5" height="7.9"/>
	
		<rect x="244.4" y="203.3" transform="matrix(-1 -1.224647e-16 1.224647e-16 -1 508.2678 414.3912)" class="st3" width="19.5" height="7.9"/>
	
		<rect x="358.4" y="215.3" transform="matrix(-1 -1.224647e-16 1.224647e-16 -1 736.1664 438.4781)" class="st3" width="19.5" height="7.9"/>
	
		<rect x="336.1" y="215.3" transform="matrix(-1 -1.224647e-16 1.224647e-16 -1 691.6983 438.4781)" class="st3" width="19.5" height="7.9"/>
	
		<rect x="334.3" y="204.2" transform="matrix(-1 -1.224647e-16 1.224647e-16 -1 687.9926 416.2441)" class="st3" width="19.5" height="7.9"/>
	
		<rect x="251.4" y="159" transform="matrix(-1 -1.224647e-16 1.224647e-16 -1 522.1641 325.9185)" class="st3" width="19.5" height="7.9"/>
	
		<rect x="99.6" y="274.4" transform="matrix(-1 -1.224647e-16 1.224647e-16 -1 218.7164 556.7245)" class="st2" width="19.5" height="7.9"/>
	
		<rect x="110.3" y="285.3" transform="matrix(-1 -1.224647e-16 1.224647e-16 -1 240.0239 578.4953)" class="st3" width="19.5" height="7.9"/>
	
		<rect x="88.1" y="285.3" transform="matrix(-1 -1.224647e-16 1.224647e-16 -1 195.5559 578.4953)" class="st3" width="19.5" height="7.9"/>
	
		<rect x="5.5" y="274.4" transform="matrix(-1 -1.224647e-16 1.224647e-16 -1 30.3725 556.7245)" class="st2" width="19.5" height="7.9"/>
	
		<rect x="16.1" y="285.3" transform="matrix(-1 -1.224647e-16 1.224647e-16 -1 51.68 578.4953)" class="st3" width="19.5" height="7.9"/>
	
		<rect x="-6.1" y="285.3" transform="matrix(-1 -1.224647e-16 1.224647e-16 -1 7.2121 578.4953)" class="st3" width="19.5" height="7.9"/>
	
		<rect x="309.3" y="243.1" transform="matrix(-1 -1.224647e-16 1.224647e-16 -1 637.9662 494.0631)" class="st2" width="19.5" height="7.9"/>
	
		<rect x="319.9" y="254" transform="matrix(-1 -1.224647e-16 1.224647e-16 -1 659.2737 515.8339)" class="st3" width="19.5" height="7.9"/>
	
		<rect x="297.7" y="254" transform="matrix(-1 -1.224647e-16 1.224647e-16 -1 614.8058 515.8339)" class="st3" width="19.5" height="7.9"/>
	
		<rect x="325" y="166.1" transform="matrix(-1 -1.224647e-16 1.224647e-16 -1 669.4644 340.0097)" class="st3" width="19.5" height="7.9"/>
	
		<rect x="354.2" y="243.4" transform="matrix(-1 -1.224647e-16 1.224647e-16 -1 727.8287 494.7214)" class="st3" width="19.5" height="7.9"/>
	
		<rect x="259.3" y="254.5" transform="matrix(-1 -1.224647e-16 1.224647e-16 -1 538.024 516.8641)" class="st3" width="19.5" height="7.9"/>
	
		<rect x="237.1" y="254.5" transform="matrix(-1 -1.224647e-16 1.224647e-16 -1 493.556 516.8641)" class="st3" width="19.5" height="7.9"/>
	
		<rect x="210.2" y="282.3" transform="matrix(-1 -1.224647e-16 1.224647e-16 -1 439.8239 572.4491)" class="st2" width="19.5" height="7.9"/>
	
		<rect x="376.4" y="293.2" transform="matrix(-1 -1.224647e-16 1.224647e-16 -1 772.2347 594.22)" class="st3" width="19.5" height="7.9"/>
	
		<rect x="376.4" y="273" transform="matrix(-1 -1.224647e-16 1.224647e-16 -1 772.2347 553.9382)" class="st3" width="19.5" height="7.9"/>
	
		<rect x="386.4" y="282.8" transform="matrix(-1 -1.224647e-16 1.224647e-16 -1 792.1743 573.5347)" class="st3" width="19.5" height="7.9"/>
	
		<rect x="364" y="282.8" transform="matrix(-1 -1.224647e-16 1.224647e-16 -1 747.5378 573.5347)" class="st3" width="19.5" height="7.9"/>
	
		<rect x="255.1" y="282.6" transform="matrix(-1 -1.224647e-16 1.224647e-16 -1 529.6863 573.1074)" class="st3" width="19.5" height="7.9"/>
	<rect x="280.6" y="308.7" class="st2" width="19.5" height="7.9"/>
	<rect x="270" y="319.6" class="st3" width="19.5" height="7.9"/>
	<rect x="292.2" y="319.6" class="st3" width="19.5" height="7.9"/>
	<rect x="345.4" y="301.8" class="st2" width="19.5" height="7.9"/>
	<rect x="334.7" y="319.6" class="st3" width="19.5" height="7.9"/>
	<rect x="357" y="319.6" class="st3" width="19.5" height="7.9"/>
	<rect x="-3.4" y="327.5" class="st3" width="19.5" height="7.9"/>
	<rect x="60.5" y="317.1" class="st3" width="19.5" height="7.9"/>
	<rect x="24.5" y="307.3" class="st3" width="19.5" height="7.9"/>
	<rect x="14.6" y="317.1" class="st3" width="19.5" height="7.9"/>
	<rect x="36.9" y="317.1" class="st3" width="19.5" height="7.9"/>
	
		<rect x="294" y="111.4" transform="matrix(-1 -1.224647e-16 1.224647e-16 -1 607.3945 230.6925)" class="st3" width="19.5" height="7.9"/>
	
		<rect x="283.6" y="78.2" transform="matrix(-1 -1.224647e-16 1.224647e-16 -1 586.7092 164.2823)" class="st3" width="19.5" height="7.9"/>
	
		<rect x="361.6" y="120.6" transform="matrix(-1 -1.224647e-16 1.224647e-16 -1 742.6512 249.0258)" class="st3" width="19.5" height="7.9"/>
	
		<rect x="294" y="176.2" transform="matrix(-1 -1.224647e-16 1.224647e-16 -1 607.3945 360.1959)" class="st2" width="19.5" height="7.9"/>
	<rect x="76.6" y="67.1" class="st2" width="19.5" height="7.9"/>
	<rect x="-2" y="122.9" class="st3" width="19.5" height="7.9"/>
	<rect x="22.3" y="129.7" class="st3" width="19.5" height="7.9"/>
	<rect x="-25.3" y="137.5" class="st3" width="19.5" height="7.9"/>
	<rect x="9.9" y="137.8" class="st3" width="19.5" height="7.9"/>
	<rect x="64.7" y="78.2" class="st2" width="19.5" height="7.9"/>
	<rect x="273.1" y="67.1" class="st2" width="19.5" height="7.9"/>
	<rect x="261.2" y="78.2" class="st2" width="19.5" height="7.9"/>
</g>
<g>
	<g>
		<path class="st4" d="M10.4,171h-50.2v-8.2H6.4V44.3h8.2v122.7C14.5,169.2,12.7,171,10.4,171z"/>
	</g>
	<g>
		<path class="st4" d="M390.4,41.5v46.9H14.4v8.2h362.9v198h-96.8c-2.3,0-4.1,1.8-4.1,4.1v30.2h8.2v-26.1h92.7v27.7h8.2V96.5h9.1
			c2.3,0,4.1-1.8,4.1-4.1v-51H390.4z"/>
		<rect x="390.6" y="66.7" class="st4" width="8" height="3.7"/>
		
			<rect x="307.6" y="296.8" transform="matrix(-1.836970e-16 1 -1 -1.836970e-16 610.2646 -12.9458)" class="st4" width="8" height="3.7"/>
		
			<rect x="315.7" y="296.8" transform="matrix(-1.836970e-16 1 -1 -1.836970e-16 618.36 -21.0413)" class="st4" width="8" height="3.7"/>
	</g>
	<g>
		<g>
			<rect x="-28.2" y="309.5" class="st4" width="132.1" height="8.2"/>
			<g>
				<g>
					<rect x="-28.2" y="298.2" class="st4" width="132.1" height="8.2"/>
				</g>
				<rect x="28.2" y="298.3" class="st4" width="5.6" height="8"/>
				<rect x="40" y="298.3" class="st4" width="5.6" height="8"/>
			</g>
		</g>
		<rect x="28.2" y="309.6" class="st4" width="5.6" height="8"/>
		<rect x="40" y="309.6" class="st4" width="5.6" height="8"/>
	</g>
</g>
<path class="st4" d="M121.9,145.3v-10.8h-6.6c-0.3-1.8-0.8-3.6-1.4-5.3l5.7-3.3l-5.4-9.4l-5.7,3.3c-1.2-1.4-2.5-2.7-3.8-3.8l3.3-5.7
	l-9.4-5.4l-3.3,5.7c-1.7-0.6-3.4-1.1-5.3-1.4v-6.6H79.3v6.6c-1.8,0.3-3.6,0.8-5.3,1.4l-3.3-5.7l-9.4,5.4l3.3,5.7
	c-1.4,1.2-2.7,2.5-3.8,3.8l-5.7-3.3l-5.4,9.4l5.7,3.3c-0.6,1.7-1.1,3.4-1.4,5.3h-6.6v10.8H54c0.3,1.8,0.8,3.6,1.4,5.3l-5.7,3.3
	l5.4,9.4l5.7-3.3c1.2,1.4,2.5,2.7,3.8,3.8l-3.3,5.7l9.4,5.4l3.3-5.7c1.7,0.6,3.4,1.1,5.3,1.4v6.6h10.8v-6.6c1.8-0.3,3.6-0.8,5.3-1.4
	l3.3,5.7l9.4-5.4l-3.3-5.7c1.4-1.2,2.7-2.5,3.8-3.8l5.7,3.3l5.4-9.4l-5.7-3.3c0.6-1.7,1.1-3.4,1.4-5.3H121.9z M84.7,160
	c-11.1,0-20.1-9-20.1-20.1c0-11.1,9-20.1,20.1-20.1c11.1,0,20.1,9,20.1,20.1C104.8,151,95.8,160,84.7,160z"/>
<path class="st4" d="M72.8,244.5v-10.8h-6.6c-0.3-1.8-0.8-3.6-1.4-5.3l5.7-3.3l-5.4-9.4l-5.7,3.3c-1.2-1.4-2.5-2.7-3.8-3.8l3.3-5.7
	l-9.4-5.4l-3.3,5.7c-1.7-0.6-3.4-1.1-5.3-1.4v-6.6H30.1v6.6c-1.8,0.3-3.6,0.8-5.3,1.4l-3.3-5.7l-9.4,5.4l3.3,5.7
	c-1.4,1.2-2.7,2.5-3.8,3.8L6,215.8l-5.4,9.4l5.7,3.3c-0.6,1.7-1.1,3.4-1.4,5.3h-6.6v10.8h6.6c0.3,1.8,0.8,3.6,1.4,5.3L0.6,253
	l5.4,9.4l5.7-3.3c1.2,1.4,2.5,2.7,3.8,3.8l-3.3,5.7l9.4,5.4l3.3-5.7c1.7,0.6,3.4,1.1,5.3,1.4v6.6H41v-6.6c1.8-0.3,3.6-0.8,5.3-1.4
	l3.3,5.7l9.4-5.4l-3.3-5.7c1.4-1.2,2.7-2.5,3.8-3.8l5.7,3.3l5.4-9.4l-5.7-3.3c0.6-1.7,1.1-3.4,1.4-5.3H72.8z M35.5,259.2
	c-11.1,0-20.1-9-20.1-20.1c0-11.1,9-20.1,20.1-20.1c11.1,0,20.1,9,20.1,20.1C55.7,250.2,46.7,259.2,35.5,259.2z"/>
<path class="st4" d="M346.9,242.9v-7.3h-4.4c-0.2-1.2-0.5-2.4-0.9-3.5l3.8-2.2l-3.6-6.3l-3.8,2.2c-0.8-0.9-1.7-1.8-2.6-2.6l2.2-3.8
	l-6.3-3.6l-2.2,3.8c-1.1-0.4-2.3-0.7-3.5-0.9v-4.4h-7.3v4.4c-1.2,0.2-2.4,0.5-3.5,0.9l-2.2-3.8l-6.3,3.6l2.2,3.8
	c-0.9,0.8-1.8,1.7-2.6,2.6l-3.8-2.2l-3.6,6.3l3.8,2.2c-0.4,1.1-0.7,2.3-0.9,3.5h-4.4v7.3h4.4c0.2,1.2,0.5,2.4,0.9,3.5l-3.8,2.2
	l3.6,6.3l3.8-2.2c0.8,0.9,1.7,1.8,2.6,2.6l-2.2,3.8l6.3,3.6l2.2-3.8c1.1,0.4,2.3,0.7,3.5,0.9v4.4h7.3V260c1.2-0.2,2.4-0.5,3.5-0.9
	l2.2,3.8l6.3-3.6l-2.2-3.8c0.9-0.8,1.8-1.7,2.6-2.6l3.8,2.2l3.6-6.3l-3.8-2.2c0.4-1.1,0.7-2.3,0.9-3.5H346.9z M321.8,252.9
	c-7.5,0-13.6-6.1-13.6-13.6c0-7.5,6.1-13.6,13.6-13.6c7.5,0,13.6,6.1,13.6,13.6C335.4,246.8,329.3,252.9,321.8,252.9z"/>
<path class="st4" d="M311.3,139.6v-7.3h-4.4c-0.2-1.2-0.5-2.4-0.9-3.5l3.8-2.2l-3.6-6.3l-3.8,2.2c-0.8-0.9-1.7-1.8-2.6-2.6l2.2-3.8
	l-6.3-3.6l-2.2,3.8c-1.1-0.4-2.3-0.7-3.5-0.9v-4.4h-7.3v4.4c-1.2,0.2-2.4,0.5-3.5,0.9l-2.2-3.8l-6.3,3.6l2.2,3.8
	c-0.9,0.8-1.8,1.7-2.6,2.6l-3.8-2.2l-3.6,6.3l3.8,2.2c-0.4,1.1-0.7,2.3-0.9,3.5H261v7.3h4.4c0.2,1.2,0.5,2.4,0.9,3.5l-3.8,2.2
	l3.6,6.3l3.8-2.2c0.8,0.9,1.7,1.8,2.6,2.6l-2.2,3.8l6.3,3.6l2.2-3.8c1.1,0.4,2.3,0.7,3.5,0.9v4.4h7.3v-4.4c1.2-0.2,2.4-0.5,3.5-0.9
	l2.2,3.8l6.3-3.6l-2.2-3.8c0.9-0.8,1.8-1.7,2.6-2.6l3.8,2.2l3.6-6.3l-3.8-2.2c0.4-1.1,0.7-2.3,0.9-3.5H311.3z M286.2,149.6
	c-7.5,0-13.6-6.1-13.6-13.6c0-7.5,6.1-13.6,13.6-13.6c7.5,0,13.6,6.1,13.6,13.6C299.8,143.5,293.7,149.6,286.2,149.6z"/>
<g>
	<g>
		<path class="st5" d="M47.2,282.6v-50.5h-65.8v-32.3L37.9,66.1H86v134.5h20.9v31.5H86v50.5H47.2z M14.1,200.5h33.1v-92L14.1,200.5z
			"/>
		<path class="st5" d="M86,282.9H47.2c-0.2,0-0.3-0.1-0.3-0.3v-50.2h-65.4c-0.2,0-0.3-0.1-0.3-0.3v-32.3c0,0,0-0.1,0-0.1L37.6,65.9
			c0-0.1,0.2-0.2,0.3-0.2H86c0.2,0,0.3,0.1,0.3,0.3v134.1h20.5c0.2,0,0.3,0.1,0.3,0.3v31.5c0,0.2-0.1,0.3-0.3,0.3H86.3v50.2
			C86.3,282.8,86.1,282.9,86,282.9z M47.5,282.3h38.1v-50.2c0-0.2,0.1-0.3,0.3-0.3h20.5v-30.9H86c-0.2,0-0.3-0.1-0.3-0.3V66.4H38.1
			l-56.3,133.4v32h65.4c0.2,0,0.3,0.1,0.3,0.3V282.3z M47.2,200.8H14.1c-0.1,0-0.2,0-0.3-0.1c-0.1-0.1-0.1-0.2,0-0.3l33.1-92
			c0.1-0.1,0.2-0.2,0.4-0.2c0.2,0,0.3,0.2,0.3,0.3v92C47.5,200.7,47.4,200.8,47.2,200.8z M14.5,200.2h32.4v-89.8L14.5,200.2z"/>
	</g>
	<g>
		<path class="st5" d="M184.3,286.3c-13,0-23.8-2.7-32.3-8c-8.6-5.3-15-12.7-19.2-22.1c-4.3-9.4-6.4-20.2-6.4-32.5v-97
			c0-12.7,2-23.7,6.1-33.3c4.1-9.5,10.4-17,19-22.3c8.6-5.3,19.5-8,32.9-8c13.2,0,24,2.7,32.5,8c8.5,5.3,14.7,12.8,18.8,22.3
			c4.1,9.5,6.1,20.6,6.1,33.3v97c0,12.3-2.1,23.1-6.4,32.5c-4.3,9.4-10.7,16.7-19.2,22.1C207.6,283.7,197,286.3,184.3,286.3z
			 M184.3,250c4.8,0,8.3-1.5,10.4-4.5c2.1-3,3.6-6.6,4.3-10.8c0.7-4.2,1.1-8.1,1.1-11.6v-95.4c0-3.9-0.3-8-0.9-12.3
			c-0.6-4.3-2-8-4.1-11.1c-2.1-3.1-5.7-4.7-10.7-4.7c-5,0-8.6,1.6-10.8,4.7c-2.2,3.1-3.7,6.8-4.3,11.1c-0.6,4.3-0.9,8.4-0.9,12.3
			V223c0,3.6,0.4,7.4,1.1,11.6c0.7,4.2,2.2,7.8,4.5,10.8C176.2,248.5,179.7,250,184.3,250z"/>
		<path class="st5" d="M184.3,286.6c-13,0-23.9-2.7-32.5-8.1c-8.6-5.4-15.1-12.8-19.4-22.2c-4.3-9.4-6.4-20.3-6.4-32.6v-97
			c0-12.6,2.1-23.9,6.2-33.4c4.1-9.5,10.5-17.1,19.1-22.5c8.6-5.4,19.7-8.1,33-8.1c13.2,0,24.2,2.7,32.6,8.1
			c8.5,5.4,14.9,12.9,19,22.5c4.1,9.5,6.2,20.8,6.2,33.4v97c0,12.3-2.2,23.3-6.4,32.6c-4.3,9.4-10.8,16.8-19.4,22.2
			C207.7,283.9,197,286.6,184.3,286.6z M184.3,63.4c-13.2,0-24.2,2.7-32.7,8c-8.5,5.3-14.8,12.7-18.9,22.2
			c-4.1,9.4-6.1,20.6-6.1,33.2v97c0,12.2,2.1,23.1,6.4,32.3c4.2,9.3,10.7,16.6,19.1,21.9c8.5,5.3,19.3,8,32.2,8
			c12.5,0,23.2-2.7,31.6-8c8.5-5.3,14.9-12.7,19.1-21.9c4.2-9.3,6.4-20.2,6.4-32.3v-97c0-12.5-2.1-23.7-6.1-33.2
			c-4.1-9.4-10.4-16.9-18.7-22.2C208.3,66.1,197.4,63.4,184.3,63.4z M184.3,250.3c-4.7,0-8.3-1.6-10.7-4.7c-2.3-3.1-3.9-6.7-4.6-11
			c-0.7-4.2-1.1-8.1-1.1-11.7v-95.4c0-3.9,0.3-8.1,0.9-12.3c0.6-4.3,2.1-8.1,4.3-11.2c2.3-3.2,6-4.8,11.1-4.8c5.1,0,8.8,1.6,11,4.8
			c2.2,3.1,3.6,6.9,4.2,11.2c0.6,4.3,0.9,8.4,0.9,12.3V223c0,3.6-0.4,7.5-1.1,11.7c-0.7,4.2-2.2,7.9-4.3,11
			C192.8,248.7,189.2,250.3,184.3,250.3z M184.3,99.8c-4.9,0-8.4,1.5-10.6,4.5c-2.2,3.1-3.6,6.7-4.2,11c-0.6,4.2-0.9,8.3-0.9,12.3
			V223c0,3.5,0.4,7.4,1.1,11.6c0.7,4.1,2.2,7.7,4.5,10.7c2.2,2.9,5.7,4.4,10.2,4.4c4.7,0,8.1-1.5,10.2-4.4c2.1-3,3.5-6.6,4.2-10.7
			c0.7-4.2,1.1-8.1,1.1-11.6v-95.4c0-3.9-0.3-8-0.9-12.3c-0.6-4.2-2-7.9-4.1-11C192.7,101.3,189.2,99.8,184.3,99.8z"/>
	</g>
	<g>
		<path class="st5" d="M330,282.6v-50.5h-65.8v-32.3l56.4-133.7h48.1v134.5h20.9v31.5h-20.9v50.5H330z M296.9,200.5H330v-92
			L296.9,200.5z"/>
		<path class="st5" d="M368.8,282.9H330c-0.2,0-0.3-0.1-0.3-0.3v-50.2h-65.4c-0.2,0-0.3-0.1-0.3-0.3v-32.3c0,0,0-0.1,0-0.1
			l56.4-133.7c0-0.1,0.2-0.2,0.3-0.2h48.1c0.2,0,0.3,0.1,0.3,0.3v134.1h20.5c0.2,0,0.3,0.1,0.3,0.3v31.5c0,0.2-0.1,0.3-0.3,0.3
			h-20.5v50.2C369.1,282.8,369,282.9,368.8,282.9z M330.3,282.3h38.1v-50.2c0-0.2,0.1-0.3,0.3-0.3h20.5v-30.9h-20.5
			c-0.2,0-0.3-0.1-0.3-0.3V66.4h-47.6l-56.3,133.4v32H330c0.2,0,0.3,0.1,0.3,0.3V282.3z M330,200.8h-33.1c-0.1,0-0.2,0-0.3-0.1
			c-0.1-0.1-0.1-0.2,0-0.3l33.1-92c0.1-0.1,0.2-0.2,0.4-0.2c0.2,0,0.3,0.2,0.3,0.3v92C330.3,200.7,330.2,200.8,330,200.8z
			 M297.3,200.2h32.4v-89.8L297.3,200.2z"/>
	</g>
</g>
<g>
	<path class="st5" d="M136.8,331v-32.6h11.8v2.4h-8.7V313h7.1v2.3h-7.1v13.5h8.8v2.3H136.8z"/>
	<path class="st5" d="M152.9,331v-32.6h7.4c2,0,3.6,0.3,4.8,1c1.2,0.7,2,1.6,2.5,2.9c0.5,1.2,0.8,2.7,0.8,4.5c0,1.2-0.1,2.4-0.4,3.4
		c-0.3,1.1-0.7,2-1.4,2.7c-0.6,0.8-1.6,1.2-2.7,1.5l5,16.7h-3l-4.8-16H156v16H152.9z M156,312.7h4.2c1.4,0,2.4-0.2,3.2-0.7
		c0.8-0.5,1.3-1.1,1.6-2c0.3-0.9,0.5-2,0.5-3.3c0-2-0.3-3.5-1-4.5c-0.7-1-2.1-1.5-4.2-1.5H156V312.7z"/>
	<path class="st5" d="M173.5,331v-32.6h7.4c2,0,3.6,0.3,4.8,1c1.2,0.7,2,1.6,2.5,2.9c0.5,1.2,0.8,2.7,0.8,4.5c0,1.2-0.1,2.4-0.4,3.4
		c-0.3,1.1-0.7,2-1.4,2.7c-0.6,0.8-1.6,1.2-2.7,1.5l5,16.7h-3l-4.8-16h-5.1v16H173.5z M176.6,312.7h4.2c1.4,0,2.4-0.2,3.2-0.7
		c0.8-0.5,1.3-1.1,1.6-2c0.3-0.9,0.5-2,0.5-3.3c0-2-0.3-3.5-1-4.5c-0.7-1-2.1-1.5-4.2-1.5h-4.2V312.7z"/>
	<path class="st5" d="M201.9,331.4c-2.1,0-3.8-0.4-5.1-1.3c-1.2-0.8-2.1-2-2.6-3.5c-0.5-1.5-0.7-3.3-0.7-5.2v-13.5
		c0-2,0.3-3.7,0.8-5.2c0.5-1.5,1.4-2.6,2.6-3.4c1.2-0.8,2.9-1.2,5-1.2c2.1,0,3.8,0.4,5,1.2c1.2,0.8,2.1,1.9,2.6,3.4
		c0.5,1.5,0.8,3.2,0.8,5.2v13.6c0,2-0.2,3.7-0.7,5.2c-0.5,1.5-1.4,2.7-2.6,3.5C205.7,331,204,331.4,201.9,331.4z M201.9,329
		c1.5,0,2.6-0.3,3.3-0.9c0.8-0.6,1.3-1.4,1.6-2.4c0.3-1,0.4-2.2,0.4-3.6v-14.8c0-1.4-0.1-2.6-0.4-3.6c-0.3-1-0.8-1.8-1.6-2.4
		c-0.8-0.6-1.9-0.8-3.3-0.8c-1.4,0-2.5,0.3-3.3,0.8c-0.8,0.6-1.3,1.3-1.6,2.4c-0.3,1-0.4,2.2-0.4,3.6v14.8c0,1.4,0.1,2.6,0.4,3.6
		c0.3,1,0.8,1.8,1.6,2.4C199.3,328.7,200.4,329,201.9,329z"/>
	<path class="st5" d="M215.3,331v-32.6h7.4c2,0,3.6,0.3,4.8,1c1.2,0.7,2,1.6,2.5,2.9c0.5,1.2,0.8,2.7,0.8,4.5c0,1.2-0.1,2.4-0.4,3.4
		c-0.3,1.1-0.7,2-1.4,2.7c-0.6,0.8-1.6,1.2-2.7,1.5l5,16.7h-3l-4.8-16h-5.1v16H215.3z M218.4,312.7h4.2c1.4,0,2.4-0.2,3.2-0.7
		c0.8-0.5,1.3-1.1,1.6-2c0.3-0.9,0.5-2,0.5-3.3c0-2-0.3-3.5-1-4.5c-0.7-1-2.1-1.5-4.2-1.5h-4.2V312.7z"/>
</g>
<g>
	<path class="st6" d="M126.4,174.4l2.3,33.7l-14.6-6.8l-3.7,14.8c0,0,31.4,17.5,34.5,17c3.1-0.6-4.7-68.8-4.7-68.8L126.4,174.4z"/>
	<path class="st6" d="M147.4,255.8c0,0,16.8-5.8,23.4-11.3c6.6-5.5-27.9-72.3-27.9-72.3S143.5,233.4,147.4,255.8z"/>
	<path class="st7" d="M217.9,234.2l-1.9,0.3c0,0.1,0,0.2,0,0.3c-0.1,2.5-13.7,9.2-23.2,12.8c-2.1,1.6-4.9,2.4-8.4,2.4
		c0,0-0.1,0-0.1,0c-7.4,0.7-21.5-2.5-24.7-4.7l-3.5,35.3c0,0,0,0,0,0c0.6,0.3,1.1,0.5,1.7,0.8c7.5,3.3,16.3,5,26.6,5
		c11.8,0,21.8-2.3,30.1-7c0.1,0,0.1-0.1,0.2-0.1c0.5-0.3,1-0.6,1.5-0.9c0.6-0.4,1.2-0.8,1.8-1.2c0.2-0.1,0.4-0.2,0.5-0.4
		c0.4-0.3,0.8-0.6,1.2-0.9c0.2-0.1,0.4-0.3,0.6-0.4c0.4-0.3,0.8-0.6,1.2-0.9c0.2-0.1,0.3-0.3,0.5-0.4c0.5-0.4,1.1-0.9,1.6-1.4
		c0,0,0,0,0,0C221.3,257.1,217.9,234.2,217.9,234.2z"/>
	<path class="st4" d="M142.4,193.2c0,0,15.6,38.1,15.8,39.5c0.2,1.3-1.5,10,1,12.3c2.5,2.3,19.3,6.2,26.4,4.8
		c7.1-1.3,30.2-11.7,30.4-15c0.2-3.3-22.9-67.2-25.8-74.9c-2.9-7.7-14.6-10.4-22.5-9.6c-7.9,0.8-27,5.8-30.4,10.6
		S142.4,193.2,142.4,193.2z"/>
	<g>
		<path class="st4" d="M143.8,157.8c0,0-1.9,17.5-0.8,21.2c1.2,3.7,6.4,13.7,6.4,13.7s8.8-11,10.5-12.2c1.7-1.2,17.7,9,17.7,9
			s0.6-11-1.7-20c-2.3-9-6.4-18.9-7.7-20.6c-1.3-1.7-1.3,4.6-6.4,8.9C156.9,162,143.8,157.8,143.8,157.8z"/>
		<g>
			<path class="st4" d="M142.3,160.8c0,0,2.3,5.8,7.3,12.9c5,7.1,11.8,12.3,11.8,12.3s5.4-13.9,6.9-22.2c1.5-8.3-1-16.6-1-16.6
				s-1,12.5-5.4,15C157.5,164.6,142.3,160.8,142.3,160.8z"/>
			<path class="st8" d="M153.8,162.8c-5.5-0.5-11.4-1.9-11.4-1.9s2.3,5.8,7.3,12.9c0.5,0.7,1,1.3,1.5,2l8.6-9.9L153.8,162.8z"/>
		</g>
	</g>
	<g>
		<path class="st6" d="M167.3,147.1c0,0,6.3,25.3,8.6,44.4c2.3,19.1,7.9,75.5,7.9,75.5s17.3-5,26.4-11.6c9-6.5,11.9-11,11.9-11
			s-14.8-64.9-14.8-65.8c0-1,1.5-10.6,1.5-10.6s26.2-12.3,36.2-19.8c10-7.5,7.5-11.6,2.7-13.5c-4.8-1.9-19.8,0.2-28.1,2.5
			c-8.3,2.3-12.5,3.9-12.5,3.9s-9.2-0.8-17.7,1.2C180.9,144.1,167.3,147.1,167.3,147.1z"/>
		<path class="st4" d="M180.6,211.8c-0.3,1-0.6,2-1,3.1"/>
		<path class="st9" d="M183.5,169l3,1.9c0,0-1,15.3-2.3,25c-0.8,5.8-1.5,9-2.8,13.4"/>
		<path class="st9" d="M178.3,150.7c1.9,3.6,4.7,8.8,4.7,9.6c0,1.2-2.9,6.5-2.9,6.5l1.8,1.1"/>
		<path class="st4" d="M176.5,147.4c0,0,0.3,0.5,0.8,1.4"/>
		<path class="st9" d="M211.9,232.2c-2.1,1.5-5.4,3.4-9.8,5.1c-9,3.5-10.6,4-10.6,4l1.3,4.6c0,0,15.8-2.9,23.1-11.2"/>
		<path class="st4" d="M215.2,229.6c0,0-0.4,0.4-1.3,1.2"/>
		<polyline class="st9" points="212.3,157.7 208.8,168 216.9,155.8 		"/>
		<line class="st4" x1="213.8" y1="153.1" x2="213" y2="155.5"/>
	</g>
	<g>
		<path class="st6" d="M143.8,157.8c0,0,1.9,35,4,52.2c2.1,17.1,5.6,59.5,5.6,59.5s-6.7-0.6-11.2-6c-4.4-5.4-6.5-9.4-6.5-9.4
			s0-36.6,0-38.1s-3.1-19.1-6-27.7c-2.9-8.7-7.1-18.7-4.6-22.9c2.5-4.2,10.4-10.6,13.3-11.4C141.3,153.1,143.6,153.9,143.8,157.8z"
			/>
		<path class="st6" d="M142.7,201.8c1.1,3.4,2.1,6.4,3,8.4"/>
		<path class="st6" d="M136.1,164.4c-0.3,2.5-0.5,4.4-0.2,4.7c0.8,0.8,3.9,3.5,3.9,3.5s-3.9,4.8-3.3,7.3c0.4,1.6,2.9,11.2,5.5,19.5"
			/>
		<path class="st6" d="M138.2,151.6c0,0-1,5.5-1.7,10.4"/>
		<line class="st6" x1="140.4" y1="240.6" x2="137" y2="239"/>
		<polyline class="st6" points="137,233.8 146.5,237.7 146.5,243.4 142.1,241.4 		"/>
	</g>
	<g>
		<path class="st4" d="M129.4,134.6l3.3,8.1c0,0-4.3-4.4-5.3-0.5c-1,3.9,2,8.6,3.9,8.6c2,0,4.3,0.2,4.3,0.2s6.9,12.2,11.2,14.5
			c4.3,2.3,10,4.3,13.7,2.3c3.6-2,5.6-7.4,6.7-11.5c1.2-4.1,0.3-16.5,0.3-16.5l-5.9-24.4c0,0,4.1-1.5,4.1-4.3c0-2.8-9.5-3.6-9.5-3.6
			s3.8-4.4-1-5.1c-4.8-0.7-20.2,8.6-20.7,8.9c-0.5,0.3,2.6-5.8-1.3-3.6c-3.9,2.1-8.6,12.7-8.1,15.1
			C125.6,125.2,129.4,134.6,129.4,134.6z"/>
		<path class="st7" d="M156.2,107.5c0,0,3.8-4.4-1-5.1c-4.8-0.7-20.2,8.6-20.7,8.9c-0.5,0.3,2.6-5.8-1.3-3.6
			c-3.9,2.1-8.6,12.7-8.1,15.1c0.5,2.5,4.3,11.8,4.3,11.8l3.3,8.1c0,0,3.8,3.5,2.5,0.8c-1.3-2.6-3.9-8.6-3.3-9.4
			c0.7-0.8,3.9-2.1,4.1-3.9c0.2-1.8-3.1-7.1-2.1-8.4c1-1.3,15,1.2,17.4-0.3c2.5-1.5-0.7-5.1-0.7-5.1l11-1c0,0,4.1-1.5,4.1-4.3
			C165.7,108.3,156.2,107.5,156.2,107.5z"/>
		<path class="st4" d="M158.3,148.1c0,0-1.5,2.8-3.8,3"/>
		<path class="st5" d="M148.1,140.5c0.5,1,0.3,2.1-0.4,2.4c-0.7,0.3-1.6-0.2-2.1-1.2c-0.5-1-0.3-2.1,0.4-2.4
			C146.7,139,147.7,139.5,148.1,140.5z"/>
		<path class="st5" d="M161.2,137.9c0.2,1.1-0.3,2-1.1,2.2c-0.8,0.1-1.5-0.7-1.7-1.7c-0.2-1.1,0.3-2,1.1-2.2
			C160.3,136.1,161.1,136.9,161.2,137.9z"/>
		<path class="st4" d="M154.6,157.3c0,0,2.8,0,4.8-1.5"/>
		<path class="st10" d="M139.9,138.4c0,0,2.3-3.3,8.6-1.3"/>
		<path class="st10" d="M156.5,135.3c0,0,1.2-3.8,5.6-4.1"/>
		<path class="st4" d="M165.7,132c0,0,1.2-2.6,2.5-1c1.3,1.6,1.8,4.9,1,7.1c-0.8,2.1-1.3,3.9-1.3,3.9l-0.3-2.3L165.7,132z"/>
	</g>
	<g>
		<path class="st4" d="M196,119.1c0,0-18.1-3.3-19.2-3.3s-14.6,2.5-16.6,3.3c-2,0.8-16.9,5.1-16.6,6.1c0.3,1,2.1,1.3,2.1,1.3
			s0.3,1.5,5.6,2.1c5.3,0.7,17.6-1,17.8,0.2c0.2,1.2-0.8,2.1-0.8,2.1l1.5,2.6c0,0,5.4-0.8,7.2-2.1c1.8-1.3,6.9-5.4,6.9-5.4l11,0.8
			L196,119.1z"/>
		<path class="st4" d="M155.9,121.4c0,0-7.4,3.1-8.6,3.8c-1.2,0.7,2.1,2,4.1,1.6c2-0.3,9.5-3.3,10.7-3.6c1.2-0.3,6.4,1,10.2,1.5
			c3.8,0.5,6.4-0.7,7.1-1"/>
	</g>
	<path class="st6" d="M240.6,145.4c0,0-5.8,1.5-12.7,0c-6.9-1.5-25.2-10.6-25.2-10.6l-12.5-3.7l2.9-14.6c0,0,31.6,3.9,40.4,7.1
		c8.9,3.3,21.8,10.8,21.4,13.5c-0.4,2.7-7.5,8.5-7.5,8.5"/>
	<path class="st9" d="M132.2,208.4c0,0,11.6,13.3,21.4,8.8c9.8-4.5,14.6-33.1,14.6-33.1"/>
	<path class="st9" d="M117,198.3c0,0,9.2,11.5,21.4,10.4c12.2-1.1,16.3-15.2,16.2-22.2"/>
	<g>
		<g>
			
				<rect x="115.2" y="190" transform="matrix(0.9479 0.3185 -0.3185 0.9479 69.6671 -26.9555)" class="st11" width="4.1" height="19.1"/>
			
				<rect x="117.4" y="188.4" transform="matrix(0.9479 0.3185 -0.3185 0.9479 66.736 -28.5048)" class="st8" width="6.3" height="2.8"/>
		</g>
		<g>
			
				<rect x="123.8" y="192.9" transform="matrix(0.9479 0.3185 -0.3185 0.9479 71.0253 -29.5255)" class="st11" width="4.1" height="19.1"/>
			
				<rect x="125.9" y="191.3" transform="matrix(0.9479 0.3185 -0.3185 0.9479 68.0935 -31.0746)" class="st8" width="6.3" height="2.8"/>
		</g>
		
			<rect x="114.1" y="195.8" transform="matrix(0.9479 0.3185 -0.3185 0.9479 70.9774 -27.8807)" class="st8" width="13.2" height="14.6"/>
		<g>
			<polygon class="st11" points="113.2,217.2 101.5,213.3 107.7,203.1 114.5,205.3 			"/>
			
				<rect x="99.1" y="214.9" transform="matrix(0.9479 0.3185 -0.3185 0.9479 76.0144 -22.0007)" class="st12" width="12.3" height="13.1"/>
			
				<rect x="107.8" y="191.6" transform="matrix(0.9479 0.3185 -0.3185 0.9479 68.9871 -25.7146)" class="st12" width="10.6" height="13.1"/>
		</g>
		<g>
			<polygon class="st11" points="130.3,223 118.6,219 124.8,208.8 131.5,211.1 			"/>
			
				<rect x="116.2" y="220.7" transform="matrix(0.9479 0.3185 -0.3185 0.9479 78.7321 -27.1409)" class="st12" width="12.3" height="13.1"/>
			
				<rect x="124.9" y="197.3" transform="matrix(0.9479 0.3185 -0.3185 0.9479 71.7026 -30.8544)" class="st12" width="10.6" height="13.1"/>
		</g>
	</g>
	<g>
		<path class="st4" d="M106.2,189.4c0,0-1.4,2.2-1,2.9c0.4,0.6,4.3,2.8,4.9,3c0.6,0.2,2.1-0.6,2-1.7c-0.1-1-3.1-3.3-4.1-3.8
			C107.1,189.2,106.6,189.1,106.2,189.4z"/>
		<path class="st4" d="M104.1,193.8c0,0-0.7,2.5-0.1,3c0.6,0.5,5,1.4,5.5,1.4c0.6,0,1.8-1.2,1.4-2.2c-0.4-1-3.9-2.2-5-2.5
			C104.8,193.4,104.4,193.4,104.1,193.8z"/>
		<path class="st4" d="M102.9,198.2c0,0-0.7,2.5-0.1,3c0.6,0.5,5,1.4,5.5,1.4c0.6,0,1.8-1.2,1.4-2.2c-0.4-1-3.9-2.2-5-2.5
			C103.6,197.8,103.2,197.8,102.9,198.2z"/>
		<path class="st4" d="M103.4,202.5c0,0-0.7,2.5-0.1,3c0.6,0.5,5,1.4,5.5,1.4c0.6,0,1.8-1.2,1.4-2.2c-0.4-1-3.9-2.2-5-2.5
			C104.2,202,103.7,202.1,103.4,202.5z"/>
	</g>
</g>
</svg>
